<svg id="Warstwa_1" xmlns="http://www.w3.org/2000/svg" viewBox="0 0 360.5 72.5"><style>.st0{fill:#1f2427}</style><title>Warstwa 1</title><path class="st0" d="M0 .7h12.1v71H0V.7zm5.7 31.9h12.5c.9 0 1.8-.2 2.5-.7.7-.5 1.3-1.2 1.7-2 .4-1 .6-2.1.6-3.1v-8.4c0-1.1-.2-2.2-.6-3.3-.3-.8-.9-1.6-1.6-2.1-.8-.5-1.7-.7-2.6-.7H5.7V.7h12.9c3.1-.1 6.2.6 9 1.9C30 3.8 32 5.7 33.3 8c1.4 2.7 2.1 5.6 2 8.6v12c.1 2.9-.6 5.8-2 8.4-1.3 2.3-3.3 4.2-5.7 5.3-2.8 1.3-5.9 1.9-9 1.8H5.7V32.6zM43.7.7h11.9v71H43.7V.7zm5.4 29.4h12.8c.9 0 1.9-.2 2.7-.6.7-.3 1.3-.9 1.7-1.6.4-.8.6-1.6.6-2.5v-7.9c0-1-.2-1.9-.6-2.8-.4-.8-1-1.4-1.8-1.8-.8-.4-1.8-.6-2.7-.6H49.1V.7h12.1c3.4-.1 6.7.6 9.8 1.9 2.6 1.2 4.8 3.1 6.2 5.5 1.5 2.7 2.2 5.7 2.1 8.7v8.3c.1 3.1-.6 6.2-2.1 9-1.4 2.5-3.6 4.5-6.3 5.7-3.1 1.4-6.4 2-9.8 2h-12V30.1zm9.9 9.4l11.1-2.3 11.3 34.5h-13L59 39.5zm38.2 31c-2.6-1.2-4.8-3.2-6.2-5.7-1.5-2.8-2.2-5.9-2.1-9V16.7c-.1-3.1.7-6.2 2.1-9 1.4-2.5 3.6-4.5 6.2-5.7a25.6 25.6 0 0 1 19.6 0c2.6 1.2 4.8 3.2 6.2 5.7 1.5 2.8 2.2 5.9 2.2 9v39.1c.1 3.1-.7 6.2-2.2 9-1.4 2.5-3.6 4.5-6.2 5.7-6.2 2.6-13.3 2.6-19.6 0zm13-10.9c.9-.5 1.6-1.2 2-2.1.5-1 .7-2.2.7-3.3v-36c0-1.1-.2-2.2-.7-3.3-.4-.9-1.1-1.6-2-2.1-1-.5-2.1-.8-3.2-.7-1.1 0-2.2.2-3.2.7-.9.5-1.6 1.2-2 2.1-.5 1-.7 2.1-.7 3.3v36c0 1.1.2 2.3.7 3.3.4.9 1.1 1.6 2 2.1 1 .5 2.1.8 3.2.7 1.2.1 2.2-.2 3.2-.7zm24.1 11c-2.5-1.2-4.7-3.1-6.3-5.4l8.1-8.4c.7 1 1.7 1.9 2.7 2.6.9.6 2 .9 3.1.8 1.4.1 2.8-.4 3.8-1.3.9-1 1.4-2.4 1.3-3.8V.7h12.1v55.8c.1 3-.6 5.9-1.9 8.6-1.3 2.3-3.2 4.2-5.6 5.4-2.8 1.3-5.8 2-8.8 1.9-3 .1-5.9-.6-8.5-1.8zM167.8.7h12.1v71h-12.1V.7zm5.4 0h26.2v11.8h-26.2V.7zm0 29.9h23.7v11.8h-23.7V30.6zm0 29.3h26.2v11.8h-26.2V59.9zm40.3 10.4c-2.5-1.4-4.6-3.6-5.8-6.2-1.4-3.1-2.1-6.4-2-9.8V18.1c-.1-3.4.6-6.7 2-9.8 1.3-2.6 3.3-4.8 5.8-6.2 5.8-2.8 12.6-2.8 18.4 0 2.5 1.4 4.6 3.6 5.8 6.2 1.4 3.1 2.1 6.4 2 9.8v5.7h-12.3v-5.7c0-1.1-.2-2.1-.5-3.1-.3-.8-.9-1.5-1.6-2-.8-.5-1.7-.7-2.6-.7-.9 0-1.8.2-2.5.7-.7.5-1.3 1.2-1.6 2-.4 1-.6 2.1-.6 3.1v36.3c0 1.1.2 2.1.6 3.1.3.8.9 1.5 1.6 2 .8.5 1.6.7 2.5.7.9 0 1.8-.2 2.6-.7.7-.5 1.3-1.2 1.6-2 .4-1 .6-2.1.5-3.1v-5.7h12.3v5.7c.1 3.4-.6 6.7-2 9.8-1.3 2.6-3.3 4.8-5.8 6.2-5.8 2.8-12.6 2.8-18.4-.1zm29-69.6H278v11.6h-35.5V.7zm11.7 6h12.1v65h-12.1v-65zm79.1 39v10h-37.1v-10h37.1zm1.7-29.5v10h-37.1v-10H335zM307 .8h9.6l-8.6 71h-9.7l8.7-71zm16.4 0h9.6l-8.6 71h-9.6l8.6-71zm37.2 70.9h-12.2V14.5l-9 4.3V5.7l8.8-5h12.3v71z" id="Warstwa_1-2"/></svg>